<svg xmlns="http://www.w3.org/2000/svg" height="21.421" viewBox="0 0 21.422728 21.420513" width="21.423"><path d="M8.625.184C4.065.184.368 3.946.368 8.587c0 4.64 3.696 8.402 8.257 8.402a8.124 8.124 0 0 0 4.786-1.554l5.425 5.52c.53.54 1.39.538 1.92 0l.022-.023c.53-.54.535-1.41 0-1.954l-5.424-5.52a8.467 8.467 0 0 0 1.527-4.871c0-4.641-3.696-8.403-8.256-8.403zm0 1.977c3.487 0 6.314 2.877 6.314 6.426 0 3.548-2.827 6.425-6.314 6.425-3.488 0-6.314-2.877-6.314-6.425 0-3.55 2.826-6.426 6.314-6.426z" fill="#929292" fill-rule="evenodd"/></svg>